<?xml version="1.0" encoding="iso-8859-1"?>
<!-- Generator: Adobe Illustrator 19.0.0, SVG Export Plug-In . SVG Version: 6.00 Build 0)  -->
<svg xmlns="http://www.w3.org/2000/svg" xmlns:xlink="http://www.w3.org/1999/xlink" version="1.1" id="Layer_1" x="0px" y="0px" viewBox="0 0 512 512" style="enable-background:new 0 0 512 512;" xml:space="preserve" width="512" height="512">
<g>
	<path style="fill:#BBDCFF;" d="M360.7,139.3l-2.699,16.199L355.3,171.4c-5.099,30.899-7.8,61.8-8.101,92.999   c0,30.901,2.401,62.1,6.901,92.701l0.3,2.1l0.298,2.1L325.6,436l-29.399,76H0l9-31.8l9.6-32.8c13.5-43.5,21.899-88.2,24.901-133.5   c2.999-45.3,0.899-90.901-6.601-135.601L33.6,158.8L30.3,139.3H360.7z"/>
	<path style="fill:#9ABADB;" d="M360.7,139.3l-2.699,16.199L355.3,171.4c-5.099,30.899-7.8,61.8-8.101,92.999   c0,30.901,2.401,62.1,6.901,92.701l0.3,2.1l0.298,2.1L325.6,436l-29.399,76H196V139.3H360.7z"/>
	<rect y="121" style="fill:#FF641A;" width="391" height="30"/>
	<g>
		<path style="fill:#7C8388;" d="M316,0v30H196c-24.901,0-45,20.099-45,45v15h-30V75c0-41.4,33.6-75,75-75H316z"/>
	</g>
	<g>
		<path style="fill:#7C8388;" d="M451,0v30h-75c-8.401,0-15,6.599-15,15c0,24.899-20.099,45-45,45H181V60h135    c8.401,0,15-6.601,15-15c0-24.901,20.099-45,45-45H451z"/>
	</g>
	<g>
		<rect x="482" style="fill:#575F64;" width="30" height="30"/>
	</g>
	<polygon style="fill:#E0F4FF;" points="512,451 512,512 271,512 271,451 336.7,421 440.799,421  "/>
	<path style="fill:#32393F;" d="M239.004,302c3.029,8.518,3.472,16.241,1.088,25.162c-3.105,11.602-10.562,21.313-20.962,27.319   c-4.594,2.65-9.492,4.085-14.443,4.984l31.45,54.474l12.993-7.5c32.3-18.662,51.612-53.496,51.685-90.894L300.845,302H239.004z"/>
	<path style="fill:#575F64;" d="M262,232l-31.5,55.199c-6-7.2-13.2-12.9-22.202-15.3c-4.199-1.199-8.099-1.5-12.299-1.5   c-7.5,0-15.3,2.1-21.899,6c-4.501,2.699-8.101,6.301-11.4,10.199L131.201,232l12.9-7.5C160,215.2,178.299,210.399,196,210.399   c18.3,0,36.599,4.801,53.101,14.101L262,232z"/>
	<path style="fill:#575F64;" d="M157.65,338.031c-6.507-11.301-8.029-21.662-2.855-36.031H92.074   c-0.05,25.585-0.73,41.146,13.619,66.017c14.404,24.921,29.406,33.217,51.445,45.879l31.432-54.446   C176.045,357.144,164.511,349.884,157.65,338.031z"/>
	<g>
		<path style="fill:#575F64;" d="M209.5,307.899c-2.701-4.799-7.8-7.5-12.9-7.5c-0.3,0-0.3,0-0.601,0c-2.1,0-4.799,0.601-6.899,2.1    c-7.2,4.2-9.6,13.5-5.4,20.4c2.399,4.501,7.2,7.2,12.299,7.5c2.701,0.3,5.4-0.3,8.101-1.8    C211.3,324.399,213.701,315.099,209.5,307.899z"/>
	</g>
	<path style="fill:#32393F;" d="M204.101,328.599c-2.701,1.5-5.4,2.1-8.101,1.8v-30c0.3,0,0.3,0,0.601,0   c5.099,0,10.199,2.701,12.9,7.5C213.701,315.099,211.3,324.399,204.101,328.599z"/>
	<path style="fill:#32393F;" d="M208.299,271.899c-4.199-1.199-8.099-1.5-12.299-1.5v-60c18.3,0,36.599,4.801,53.101,14.101L262,232   l-31.5,55.199C224.5,280,217.301,274.3,208.299,271.899z"/>
	<rect x="196" y="121" style="fill:#F03800;" width="195" height="30"/>
	<rect x="196" style="fill:#575F64;" width="120" height="30"/>
	<path style="fill:#575F64;" d="M451,0v30h-75c-8.401,0-15,6.599-15,15c0,24.899-20.099,45-45,45H196V60h120c8.401,0,15-6.601,15-15   c0-24.901,20.099-45,45-45H451z"/>
	<polygon style="fill:#BBDCFF;" points="512,451 512,512 391,512 391,421 440.799,421  "/>
	<g>
		<g>
			<path style="fill:#FF9100;" d="M510.5,433.299L508.1,421c-13.5-52.2-62.199-90-117.1-90c-32.1,0-62.401,12.599-84.6,35.099     c-15.3,15-26.1,33.9-31.199,54.901c-0.3,1.199-0.601,2.1-0.901,3.3l-1.8,9C271.3,438.999,271,445,271,451h241     C512,445,511.7,438.999,510.5,433.299z"/>
		</g>
	</g>
	<path style="fill:#FF641A;" d="M512,451H391V331c54.901,0,103.599,37.8,117.1,90l2.401,12.299C511.7,438.999,512,445,512,451z"/>
</g>















</svg>
